<svg width="80" height="22" viewBox="0 0 80 22" fill="none" xmlns="http://www.w3.org/2000/svg">
<path d="M9.18 1.32111H13.05L22.29 20.8074H17.01L15.18 16.679H6.93L5.16 20.8074H0L9.18 1.32111ZM10.98 6.99085L8.4 13.0459H13.59L10.98 6.99085Z" fill="#01996D"/>
<path d="M23.9163 0H28.4163V20.8074H23.9163V0Z" fill="#01996D"/>
<path d="M31.7093 7.43122H36.2093V20.8074H31.7093V7.43122ZM31.3493 3.2202C31.3493 2.55964 31.5993 2.00001 32.0993 1.54129C32.6193 1.06422 33.2393 0.825692 33.9593 0.825692C34.6793 0.825692 35.2893 1.06422 35.7893 1.54129C36.3093 2.00001 36.5693 2.55964 36.5693 3.2202C36.5693 3.88075 36.3093 4.44956 35.7893 4.92663C35.2893 5.38534 34.6793 5.6147 33.9593 5.6147C33.2393 5.6147 32.6193 5.38534 32.0993 4.92663C31.5993 4.44956 31.3493 3.88075 31.3493 3.2202Z" fill="#01996D"/>
<path d="M37.9123 7.43122H42.7723L46.4623 16.5138H46.5223L49.9423 7.43122H54.4723L48.7123 20.8074H43.9423L37.9123 7.43122Z" fill="#01996D"/>
<path d="M56.1722 7.43122H60.6722V20.8074H56.1722V7.43122ZM55.8122 3.2202C55.8122 2.55964 56.0622 2.00001 56.5622 1.54129C57.0822 1.06422 57.7022 0.825692 58.4222 0.825692C59.1422 0.825692 59.7522 1.06422 60.2522 1.54129C60.7722 2.00001 61.0322 2.55964 61.0322 3.2202C61.0322 3.88075 60.7722 4.44956 60.2522 4.92663C59.7522 5.38534 59.1422 5.6147 58.4222 5.6147C57.7022 5.6147 57.0822 5.38534 56.5622 4.92663C56.0622 4.44956 55.8122 3.88075 55.8122 3.2202Z" fill="#01996D"/>
<path d="M63.3652 14.1193C63.3652 13.0551 63.5752 12.0918 63.9952 11.2294C64.4152 10.367 64.9852 9.63307 65.7052 9.02756C66.4452 8.4037 67.3052 7.92664 68.2852 7.59636C69.2852 7.26608 70.3452 7.10095 71.4652 7.10095C72.5852 7.10095 73.6352 7.26608 74.6152 7.59636C75.6152 7.92664 76.4752 8.4037 77.1952 9.02756C77.9352 9.63307 78.5152 10.367 78.9352 11.2294C79.3552 12.0918 79.5652 13.0551 79.5652 14.1193C79.5652 15.1835 79.3552 16.1469 78.9352 17.0092C78.5152 17.8716 77.9352 18.6148 77.1952 19.2386C76.4752 19.8441 75.6152 20.312 74.6152 20.6423C73.6352 20.9726 72.5852 21.1377 71.4652 21.1377C70.3452 21.1377 69.2852 20.9726 68.2852 20.6423C67.3052 20.312 66.4452 19.8441 65.7052 19.2386C64.9852 18.6148 64.4152 17.8716 63.9952 17.0092C63.5752 16.1469 63.3652 15.1835 63.3652 14.1193ZM67.8652 14.1193C67.8652 15.1285 68.1752 15.945 68.7952 16.5689C69.4352 17.1927 70.3252 17.5047 71.4652 17.5047C72.6052 17.5047 73.4852 17.1927 74.1052 16.5689C74.7452 15.945 75.0652 15.1285 75.0652 14.1193C75.0652 13.1101 74.7452 12.2936 74.1052 11.6698C73.4852 11.0459 72.6052 10.734 71.4652 10.734C70.3252 10.734 69.4352 11.0459 68.7952 11.6698C68.1752 12.2936 67.8652 13.1101 67.8652 14.1193Z" fill="#01996D"/>
</svg>
